<?xml version="1.0" standalone="no"?><!-- Generator: Gravit.io --><svg xmlns="http://www.w3.org/2000/svg" xmlns:xlink="http://www.w3.org/1999/xlink" style="isolation:isolate" viewBox="0 0 375 667" width="375" height="667"><defs><clipPath id="_clipPath_dBcEPw1GOvRhO2HZZovYL7H6fo9kRjaB"><rect width="375" height="667"/></clipPath></defs><g clip-path="url(#_clipPath_dBcEPw1GOvRhO2HZZovYL7H6fo9kRjaB)"><rect width="375" height="667" style="fill:rgb(208,208,208)"/><g id="Group"><rect x="0" y="0" width="375" height="48" transform="matrix(1,0,0,1,0,0)" fill="rgb(235,235,235)"/><g transform="matrix(1,0,0,1,132.5,10.382)"><text transform="matrix(1,0,0,1,0,21.377)" style="font-family:&quot;Open Sans&quot;;font-weight:400;font-size:20px;font-style:normal;fill:#000000;stroke:none;">First screen</text></g></g><g id="Group"><path d="M 64.4 172 L 314.6 172 C 320.34 172 325 176.66 325 182.4 L 325 421.6 C 325 427.34 320.34 432 314.6 432 L 64.4 432 C 58.66 432 54 427.34 54 421.6 L 54 182.4 C 54 176.66 58.66 172 64.4 172 Z" style="stroke:none;fill:#EBEBEB;stroke-miterlimit:10;"/><path d="M 64.4 172 L 314.6 172 C 320.34 172 325 176.66 325 182.4 L 325 421.6 C 325 427.34 320.34 432 314.6 432 L 64.4 432 C 58.66 432 54 427.34 54 421.6 L 54 182.4 C 54 176.66 58.66 172 64.4 172 Z" style="fill:none;stroke:#000000;stroke-width:1;stroke-linecap:square;stroke-miterlimit:3;opacity:0.2;"/><g transform="matrix(1,0,0,1,85,194)"><text transform="matrix(1,0,0,1,0,21.377)" style="font-family:&quot;Open Sans&quot;;font-weight:400;font-size:20px;font-style:normal;fill:#000000;stroke:none;">This is the first screen</text></g><g id="Group"><path d=" M 148.939 325.594 C 148.939 325.594 141.361 289.344 162.221 271.922 C 183.236 254.5 183.002 293.797 183.002 293.797 C 183.002 293.797 205.346 288.641 217.143 303.016 C 217.143 303.016 222.299 311.063 208.861 315.984 C 208.861 315.984 199.799 320.672 199.096 324.891 C 199.096 324.891 205.658 337.234 223.158 342.234 C 240.658 347.234 236.127 378.953 211.518 379.734 C 186.908 380.516 166.439 363.094 166.439 363.094 C 166.439 363.094 170.189 382.781 156.83 380.828 C 143.393 378.797 128.705 358.016 142.611 331.063 C 145.502 325.438 148.939 325.594 148.939 325.594 Z " fill-rule="evenodd" fill="rgb(0,0,0)" fill-opacity="0.2"/><path d=" M 152.533 320.906 C 152.533 320.906 144.955 284.656 165.814 267.234 C 186.752 249.891 186.596 289.109 186.596 289.109 C 186.596 289.109 208.939 284.031 220.658 298.328 C 220.658 298.328 225.893 306.375 212.455 311.297 C 212.455 311.297 203.393 315.984 202.689 320.203 C 202.689 320.203 209.174 332.547 226.674 337.547 C 244.174 342.547 239.721 374.266 215.111 375.047 C 190.502 375.828 170.033 358.406 170.033 358.406 C 170.033 358.406 173.783 378.094 160.346 376.141 C 146.986 374.109 132.221 353.328 146.205 326.375 C 149.096 320.75 152.455 320.906 152.455 320.906 L 152.533 320.906 Z " fill-rule="evenodd" fill="rgb(255,255,255)"/><path d=" M 175.424 262.078 L 176.439 262.078 L 176.596 262.156 L 176.986 262.156 L 177.143 262.234 L 177.299 262.234 L 177.455 262.391 L 177.768 262.391 L 177.924 262.547 L 178.08 262.547 L 178.236 262.625 L 178.393 262.625 L 178.549 262.859 L 178.705 262.859 L 178.783 263.016 L 178.939 263.016 L 179.096 263.172 L 179.252 263.172 L 179.408 263.328 L 179.486 263.406 L 179.643 263.484 L 179.799 263.641 L 179.955 263.641 L 180.033 263.797 L 180.189 263.953 L 180.346 263.953 L 180.424 264.109 L 180.58 264.266 L 180.658 264.344 L 180.814 264.5 L 180.893 264.578 L 181.049 264.734 L 181.127 264.813 L 181.283 264.969 L 181.361 265.125 L 181.518 265.203 L 181.596 265.359 L 181.752 265.516 L 181.83 265.594 L 181.908 265.75 L 182.064 265.906 L 182.143 266.063 L 182.221 266.219 L 182.299 266.297 L 182.455 266.453 L 182.533 266.609 L 182.611 266.766 L 182.689 266.922 L 182.846 267.078 L 182.846 267.156 L 183.002 267.313 L 183.08 267.469 L 183.158 267.625 L 183.236 267.781 L 183.314 267.938 L 183.393 268.094 L 183.471 268.25 L 183.627 268.484 L 183.627 268.641 L 183.783 268.797 L 183.783 268.953 L 183.939 269.109 L 183.939 269.266 L 184.018 269.5 L 184.096 269.656 L 184.252 269.969 L 184.408 270.359 L 184.564 270.75 L 184.643 271.063 L 184.799 271.453 L 184.877 271.844 L 185.033 272.156 L 185.111 272.547 L 185.268 272.938 L 185.346 273.328 L 185.502 273.719 L 185.502 274.109 L 185.658 274.422 L 185.736 274.813 L 185.814 275.203 L 185.893 275.594 L 185.971 275.984 L 186.049 276.375 L 186.127 276.766 L 186.205 277.156 L 186.283 277.547 L 186.361 277.859 L 186.361 278.25 L 186.518 278.641 L 186.518 279.031 L 186.596 279.344 L 186.596 279.734 L 186.674 280.125 L 186.752 280.516 L 186.752 280.828 L 186.83 281.219 L 186.83 281.531 L 186.908 281.922 L 186.908 282.234 L 186.986 282.547 L 186.986 283.25 L 187.143 283.875 L 187.143 285.047 L 187.221 285.594 L 187.221 286.609 L 187.299 287.078 L 187.299 288.172 L 188.002 288.172 L 188.314 288.094 L 188.627 288.094 L 188.939 288.016 L 189.33 287.938 L 189.721 287.938 L 190.189 287.859 L 190.658 287.781 L 191.127 287.781 L 191.596 287.703 L 192.064 287.703 L 192.611 287.625 L 193.393 287.625 L 193.705 287.547 L 199.252 287.547 L 199.643 287.625 L 200.268 287.625 L 200.658 287.703 L 200.971 287.703 L 201.361 287.781 L 201.674 287.781 L 202.064 287.938 L 202.768 287.938 L 203.08 288.094 L 203.471 288.094 L 203.783 288.172 L 204.174 288.172 L 204.564 288.328 L 204.877 288.328 L 205.268 288.484 L 205.58 288.484 L 205.971 288.641 L 206.361 288.719 L 206.674 288.797 L 207.064 288.953 L 207.455 288.953 L 207.768 289.109 L 208.158 289.266 L 208.549 289.344 L 208.861 289.5 L 209.252 289.578 L 209.643 289.734 L 209.955 289.891 L 210.346 289.969 L 210.658 290.125 L 211.049 290.281 L 211.439 290.438 L 211.752 290.594 L 212.143 290.75 L 212.455 290.984 L 212.846 291.141 L 213.158 291.297 L 213.549 291.453 L 213.705 291.609 L 213.861 291.688 L 214.096 291.766 L 214.252 291.922 L 214.408 291.922 L 214.564 292.078 L 214.721 292.156 L 214.955 292.313 L 215.111 292.391 L 215.268 292.547 L 215.424 292.625 L 215.58 292.703 L 215.814 292.859 L 215.971 292.938 L 216.127 293.094 L 216.283 293.172 L 216.439 293.328 L 216.596 293.406 L 216.752 293.563 L 216.986 293.719 L 217.143 293.797 L 217.299 293.953 L 217.455 294.109 L 217.611 294.187 L 217.768 294.344 L 217.924 294.5 L 218.08 294.578 L 218.236 294.734 L 218.393 294.891 L 218.549 295.047 L 218.705 295.203 L 218.861 295.281 L 219.018 295.437 L 219.174 295.594 L 219.33 295.75 L 219.486 295.906 L 219.643 296.062 L 219.799 296.219 L 219.955 296.375 L 220.111 296.531 L 220.268 296.687 L 220.424 296.844 L 220.58 297 L 220.736 297.156 L 220.814 297.312 L 220.971 297.547 L 221.127 297.703 L 221.283 297.859 L 221.361 297.937 L 221.361 298.016 L 221.439 298.172 L 221.596 298.328 L 221.596 298.484 L 221.674 298.562 L 221.674 298.719 L 221.752 298.797 L 221.83 298.953 L 221.83 299.109 L 221.986 299.266 L 221.986 299.422 L 222.064 299.578 L 222.064 299.812 L 222.143 299.969 L 222.221 300.203 L 222.221 300.359 L 222.299 300.594 L 222.299 300.906 L 222.377 301.062 L 222.377 303.328 L 222.299 303.484 L 222.299 303.641 L 222.221 303.797 L 222.221 303.953 L 222.143 304.031 L 222.143 304.187 L 222.064 304.344 L 222.064 304.5 L 221.986 304.656 L 221.908 304.812 L 221.908 304.969 L 221.752 305.047 L 221.752 305.203 L 221.596 305.359 L 221.596 305.516 L 221.518 305.672 L 221.361 305.828 L 221.361 305.984 L 221.205 306.141 L 221.127 306.297 L 221.049 306.375 L 220.893 306.531 L 220.893 306.687 L 220.736 306.844 L 220.58 307 L 220.502 307.156 L 220.346 307.312 L 220.189 307.469 L 220.111 307.625 L 219.955 307.703 L 219.799 307.859 L 219.643 308.016 L 219.486 308.172 L 219.33 308.328 L 219.174 308.484 L 219.018 308.562 L 218.861 308.719 L 218.627 308.875 L 218.471 309.031 L 218.314 309.187 L 218.08 309.344 L 217.924 309.422 L 217.689 309.578 L 217.455 309.734 L 217.299 309.891 L 217.064 309.969 L 216.83 310.125 L 216.596 310.281 L 216.361 310.359 L 216.127 310.516 L 215.893 310.672 L 215.58 310.828 L 215.346 310.906 L 215.111 311.062 L 214.799 311.219 L 214.564 311.297 L 214.252 311.453 L 213.939 311.531 L 213.627 311.687 L 213.314 311.766 L 213.002 311.922 L 212.768 312 L 212.455 312.234 L 212.221 312.312 L 211.986 312.469 L 211.674 312.625 L 211.439 312.781 L 211.049 312.937 L 210.736 313.172 L 210.346 313.406 L 209.955 313.641 L 209.721 313.797 L 209.564 313.953 L 209.33 314.031 L 209.096 314.187 L 208.939 314.344 L 208.705 314.5 L 208.471 314.656 L 208.314 314.812 L 208.08 314.969 L 207.846 315.125 L 207.611 315.281 L 207.377 315.437 L 207.221 315.594 L 206.986 315.75 L 206.752 315.984 L 206.596 316.141 L 206.361 316.297 L 206.205 316.453 L 205.971 316.687 L 205.814 316.844 L 205.58 317 L 205.424 317.234 L 205.268 317.391 L 205.033 317.547 L 204.877 317.781 L 204.721 317.937 L 204.721 318.016 L 204.564 318.094 L 204.564 318.172 L 204.408 318.328 L 204.33 318.484 L 204.252 318.562 L 204.174 318.641 L 204.174 318.719 L 204.096 318.875 L 204.018 318.875 L 204.018 319.031 L 203.861 319.109 L 203.861 319.266 L 203.783 319.344 L 203.783 319.422 L 203.705 319.578 L 203.627 319.734 L 203.549 319.891 L 203.549 320.047 L 203.471 320.047 L 203.471 320.125 L 203.627 320.359 L 203.705 320.516 L 203.783 320.672 L 203.939 320.828 L 204.018 320.984 L 204.174 321.141 L 204.252 321.375 L 204.408 321.531 L 204.564 321.766 L 204.721 322 L 204.955 322.234 L 205.111 322.547 L 205.346 322.781 L 205.502 323.016 L 205.736 323.328 L 205.971 323.562 L 206.205 323.875 L 206.518 324.187 L 206.752 324.5 L 207.064 324.812 L 207.377 325.125 L 207.689 325.437 L 207.846 325.594 L 208.002 325.75 L 208.158 325.984 L 208.314 326.141 L 208.471 326.297 L 208.627 326.453 L 208.861 326.609 L 209.018 326.766 L 209.174 327 L 209.408 327.156 L 209.564 327.312 L 209.799 327.469 L 209.955 327.703 L 210.189 327.859 L 210.346 328.016 L 210.58 328.172 L 210.814 328.406 L 210.971 328.562 L 211.205 328.719 L 211.439 328.875 L 211.674 329.109 L 211.908 329.266 L 212.143 329.422 L 212.377 329.578 L 212.611 329.812 L 212.846 329.969 L 213.08 330.125 L 213.314 330.359 L 213.549 330.516 L 213.783 330.672 L 214.096 330.828 L 214.33 331.062 L 214.564 331.219 L 214.877 331.375 L 215.111 331.531 L 215.424 331.687 L 215.658 331.922 L 215.971 332.078 L 216.283 332.234 L 216.518 332.391 L 216.83 332.547 L 217.143 332.781 L 217.455 332.937 L 217.689 333.094 L 218.002 333.25 L 218.314 333.406 L 218.627 333.562 L 218.939 333.719 L 219.33 333.875 L 219.643 334.031 L 219.955 334.187 L 220.268 334.344 L 220.58 334.5 L 220.971 334.656 L 221.283 334.812 L 221.674 334.969 L 221.986 335.125 L 222.377 335.281 L 222.689 335.359 L 223.08 335.516 L 223.471 335.672 L 223.783 335.828 L 224.174 335.906 L 224.564 336.062 L 224.955 336.219 L 225.346 336.297 L 225.736 336.453 L 226.127 336.609 L 226.518 336.687 L 226.908 336.844 L 227.143 336.844 L 227.377 336.922 L 227.533 337 L 227.768 337 L 228.002 337.156 L 228.158 337.156 L 228.393 337.312 L 228.549 337.312 L 228.783 337.469 L 228.939 337.547 L 229.174 337.625 L 229.33 337.703 L 229.564 337.781 L 229.721 337.937 L 229.877 337.937 L 230.111 338.094 L 230.268 338.25 L 230.424 338.25 L 230.658 338.406 L 230.814 338.484 L 230.971 338.641 L 231.127 338.719 L 231.283 338.875 L 231.518 338.953 L 231.674 339.109 L 231.83 339.187 L 231.986 339.344 L 232.143 339.5 L 232.299 339.578 L 232.455 339.734 L 232.611 339.812 L 232.768 339.969 L 232.924 340.125 L 233.002 340.281 L 233.158 340.359 L 233.314 340.516 L 233.471 340.672 L 233.627 340.828 L 233.705 340.984 L 233.861 341.141 L 234.018 341.297 L 234.096 341.453 L 234.252 341.531 L 234.408 341.687 L 234.486 341.844 L 234.643 342 L 234.721 342.156 L 234.877 342.312 L 234.955 342.469 L 235.111 342.703 L 235.189 342.859 L 235.268 343.016 L 235.424 343.172 L 235.502 343.328 L 235.58 343.484 L 235.736 343.719 L 235.736 343.875 L 235.893 344.031 L 235.971 344.187 L 236.127 344.344 L 236.127 344.578 L 236.283 344.734 L 236.283 344.891 L 236.439 345.125 L 236.439 345.281 L 236.596 345.437 L 236.596 345.672 L 236.752 345.828 L 236.752 345.984 L 236.908 346.219 L 236.908 346.375 L 236.986 346.609 L 237.064 346.766 L 237.064 346.922 L 237.221 347.156 L 237.221 347.312 L 237.299 347.547 L 237.299 347.625 L 237.377 347.859 L 237.455 348.016 L 237.455 348.25 L 237.533 348.406 L 237.533 348.641 L 237.611 348.797 L 237.611 349.031 L 237.689 349.266 L 237.689 349.422 L 237.768 349.656 L 237.768 350.047 L 237.846 350.203 L 237.846 350.672 L 237.924 350.828 L 237.924 351.687 L 238.002 351.922 L 238.002 354.891 L 237.924 355.125 L 237.924 355.438 L 237.846 355.672 L 237.846 356.063 L 237.768 356.297 L 237.768 356.531 L 237.689 356.688 L 237.689 356.922 L 237.611 357.156 L 237.611 357.313 L 237.533 357.547 L 237.533 357.781 L 237.455 358.016 L 237.455 358.172 L 237.299 358.406 L 237.299 358.641 L 237.221 358.797 L 237.221 359.031 L 237.064 359.266 L 237.064 359.422 L 236.986 359.656 L 236.986 359.891 L 236.83 360.047 L 236.83 360.281 L 236.674 360.437 L 236.674 360.672 L 236.518 360.906 L 236.518 361.062 L 236.361 361.297 L 236.361 361.531 L 236.205 361.687 L 236.205 361.922 L 236.049 362.078 L 235.971 362.312 L 235.893 362.547 L 235.814 362.703 L 235.658 362.937 L 235.658 363.094 L 235.502 363.328 L 235.424 363.484 L 235.268 363.719 L 235.189 363.875 L 235.111 364.109 L 234.955 364.266 L 234.877 364.5 L 234.721 364.656 L 234.643 364.891 L 234.486 365.047 L 234.408 365.203 L 234.252 365.437 L 234.174 365.594 L 234.018 365.828 L 233.861 365.984 L 233.783 366.141 L 233.627 366.375 L 233.471 366.531 L 233.393 366.687 L 233.236 366.922 L 233.08 367.078 L 232.924 367.234 L 232.846 367.391 L 232.689 367.625 L 232.533 367.781 L 232.377 367.937 L 232.221 368.094 L 232.064 368.328 L 231.908 368.484 L 231.752 368.641 L 231.596 368.797 L 231.439 368.953 L 231.283 369.109 L 231.127 369.266 L 230.971 369.422 L 230.736 369.578 L 230.58 369.734 L 230.424 369.891 L 230.268 370.047 L 230.111 370.203 L 229.877 370.359 L 229.721 370.516 L 229.564 370.672 L 229.33 370.828 L 229.174 370.984 L 229.018 371.141 L 228.783 371.219 L 228.627 371.375 L 228.393 371.531 L 228.236 371.687 L 228.002 371.766 L 227.846 371.922 L 227.611 372.078 L 227.377 372.156 L 227.221 372.312 L 226.986 372.469 L 226.83 372.547 L 226.596 372.703 L 226.361 372.781 L 226.127 372.937 L 225.971 373.016 L 225.736 373.172 L 225.502 373.25 L 225.268 373.328 L 225.033 373.484 L 224.799 373.562 L 224.564 373.641 L 224.33 373.797 L 224.096 373.875 L 223.861 373.953 L 223.627 374.031 L 223.393 374.187 L 223.158 374.187 L 222.924 374.344 L 222.689 374.422 L 222.455 374.5 L 222.221 374.578 L 221.986 374.656 L 221.674 374.734 L 221.439 374.734 L 221.205 374.891 L 220.971 374.891 L 220.658 374.969 L 220.424 375.047 L 220.189 375.125 L 219.877 375.125 L 219.643 375.203 L 219.33 375.281 L 219.096 375.281 L 218.783 375.359 L 218.549 375.437 L 218.236 375.437 L 218.002 375.516 L 217.455 375.516 L 217.143 375.594 L 216.83 375.594 L 216.596 375.672 L 215.424 375.672 L 215.111 375.75 L 210.502 375.75 L 210.189 375.672 L 209.33 375.672 L 209.096 375.594 L 208.471 375.594 L 208.236 375.516 L 207.689 375.516 L 207.143 375.359 L 206.518 375.359 L 205.971 375.281 L 205.424 375.203 L 204.877 375.047 L 204.33 375.047 L 203.783 374.891 L 203.236 374.812 L 202.689 374.734 L 202.143 374.578 L 201.674 374.5 L 201.127 374.344 L 200.58 374.266 L 200.033 374.109 L 199.564 373.953 L 199.018 373.875 L 198.471 373.719 L 198.002 373.562 L 197.455 373.406 L 196.986 373.328 L 196.439 373.172 L 195.971 373.016 L 195.424 372.859 L 194.955 372.703 L 194.486 372.547 L 193.939 372.312 L 193.471 372.156 L 193.002 372 L 192.533 371.844 L 192.064 371.687 L 191.596 371.453 L 191.127 371.297 L 190.658 371.141 L 190.189 370.906 L 189.721 370.75 L 189.252 370.594 L 188.861 370.359 L 188.393 370.203 L 187.924 369.969 L 187.533 369.812 L 187.064 369.578 L 186.674 369.422 L 186.205 369.187 L 185.814 369.031 L 185.424 368.797 L 184.955 368.641 L 184.564 368.406 L 184.174 368.25 L 183.783 368.016 L 183.393 367.781 L 183.002 367.625 L 182.611 367.391 L 182.221 367.234 L 181.83 367 L 181.439 366.766 L 181.127 366.609 L 180.736 366.375 L 180.424 366.219 L 180.033 365.984 L 179.721 365.828 L 179.33 365.594 L 179.018 365.437 L 178.705 365.203 L 178.314 365.047 L 178.002 364.812 L 177.689 364.656 L 177.377 364.422 L 177.064 364.266 L 176.83 364.031 L 176.205 363.719 L 175.658 363.328 L 175.111 362.937 L 174.564 362.625 L 174.096 362.312 L 173.627 361.922 L 173.158 361.609 L 172.768 361.375 L 172.377 361.062 L 171.986 360.75 L 171.596 360.516 L 171.283 360.281 L 171.049 360.125 L 171.049 360.594 L 171.127 360.984 L 171.127 361.687 L 171.205 362 L 171.205 366.766 L 171.127 367 L 171.127 367.469 L 171.049 367.625 L 171.049 368.094 L 170.971 368.328 L 170.971 368.562 L 170.893 368.797 L 170.814 369.031 L 170.814 369.266 L 170.736 369.5 L 170.658 369.734 L 170.658 369.891 L 170.502 370.125 L 170.502 370.359 L 170.424 370.594 L 170.346 370.828 L 170.268 371.063 L 170.189 371.219 L 170.111 371.453 L 170.033 371.687 L 169.955 371.844 L 169.799 372.078 L 169.799 372.312 L 169.643 372.469 L 169.564 372.703 L 169.408 372.859 L 169.33 373.094 L 169.174 373.25 L 169.096 373.484 L 168.939 373.641 L 168.783 373.875 L 168.705 374.031 L 168.549 374.187 L 168.471 374.266 L 168.393 374.344 L 168.314 374.5 L 168.236 374.5 L 168.158 374.656 L 168.08 374.656 L 168.002 374.812 L 167.924 374.812 L 167.846 374.969 L 167.768 374.969 L 167.689 375.125 L 167.533 375.125 L 167.533 375.281 L 167.377 375.281 L 167.377 375.437 L 167.221 375.437 L 167.143 375.516 L 166.986 375.594 L 166.986 375.672 L 166.83 375.672 L 166.752 375.828 L 166.596 375.828 L 166.596 375.906 L 166.439 375.984 L 166.283 375.984 L 166.283 376.062 L 166.127 376.141 L 165.971 376.141 L 165.893 376.297 L 165.658 376.297 L 165.58 376.375 L 165.424 376.453 L 165.346 376.453 L 165.189 376.531 L 165.111 376.531 L 164.955 376.609 L 164.877 376.609 L 164.721 376.687 L 164.486 376.687 L 164.33 376.766 L 164.252 376.766 L 164.096 376.844 L 163.705 376.844 L 163.549 376.922 L 163.002 376.922 L 162.846 377 L 160.736 377 L 160.58 376.922 L 160.268 376.922 L 160.111 376.844 L 159.721 376.844 L 159.564 376.766 L 159.408 376.766 L 159.252 376.687 L 159.018 376.687 L 158.861 376.609 L 158.705 376.531 L 158.549 376.531 L 158.314 376.453 L 158.158 376.453 L 158.002 376.375 L 157.846 376.375 L 157.689 376.219 L 157.455 376.219 L 157.299 376.141 L 157.143 376.141 L 156.986 375.984 L 156.674 375.984 L 156.518 375.906 L 156.361 375.906 L 156.205 375.75 L 156.049 375.75 L 155.893 375.672 L 155.736 375.594 L 155.58 375.516 L 155.424 375.437 L 155.268 375.359 L 155.111 375.281 L 154.955 375.203 L 154.721 375.125 L 154.564 375.047 L 154.408 374.969 L 154.252 374.891 L 154.096 374.812 L 153.939 374.656 L 153.783 374.656 L 153.627 374.5 L 153.471 374.422 L 153.314 374.344 L 153.158 374.266 L 153.002 374.109 L 152.846 374.031 L 152.689 373.953 L 152.533 373.797 L 152.377 373.797 L 152.221 373.641 L 152.064 373.484 L 151.908 373.406 L 151.752 373.328 L 151.596 373.172 L 151.439 373.094 L 151.283 372.937 L 151.127 372.859 L 150.971 372.703 L 150.814 372.625 L 150.736 372.469 L 150.58 372.391 L 150.424 372.234 L 150.268 372.156 L 150.111 372 L 149.955 371.844 L 149.799 371.766 L 149.643 371.609 L 149.486 371.453 L 149.408 371.375 L 149.252 371.219 L 149.096 371.063 L 148.939 370.906 L 148.783 370.828 L 148.627 370.672 L 148.549 370.516 L 148.393 370.359 L 148.236 370.203 L 148.08 370.047 L 147.924 369.969 L 147.846 369.813 L 147.689 369.656 L 147.533 369.5 L 147.377 369.344 L 147.299 369.188 L 147.143 369.031 L 146.986 368.875 L 146.908 368.719 L 146.752 368.563 L 146.596 368.406 L 146.518 368.25 L 146.361 368.094 L 146.205 367.859 L 146.127 367.703 L 145.971 367.547 L 145.893 367.391 L 145.736 367.234 L 145.58 367.078 L 145.502 366.844 L 145.346 366.688 L 145.268 366.531 L 145.111 366.375 L 145.033 366.141 L 144.877 365.984 L 144.799 365.828 L 144.643 365.594 L 144.564 365.438 L 144.408 365.281 L 144.33 365.047 L 144.174 364.891 L 144.174 364.734 L 144.018 364.5 L 143.861 364.344 L 143.783 364.109 L 143.705 363.953 L 143.549 363.719 L 143.471 363.563 L 143.393 363.328 L 143.236 363.172 L 143.236 362.938 L 143.08 362.781 L 143.002 362.547 L 142.846 362.313 L 142.846 362.156 L 142.689 361.922 L 142.611 361.766 L 142.533 361.531 L 142.377 361.297 L 142.377 361.141 L 142.221 360.906 L 142.221 360.672 L 142.064 360.438 L 141.986 360.281 L 141.908 360.047 L 141.83 359.813 L 141.752 359.578 L 141.674 359.422 L 141.596 359.188 L 141.518 358.953 L 141.439 358.719 L 141.361 358.484 L 141.361 358.25 L 141.205 358.016 L 141.205 357.859 L 141.049 357.625 L 141.049 357.391 L 140.971 357.156 L 140.893 356.922 L 140.893 356.688 L 140.736 356.453 L 140.736 356.219 L 140.658 355.984 L 140.658 355.75 L 140.58 355.438 L 140.502 355.203 L 140.502 354.969 L 140.424 354.734 L 140.424 354.422 L 140.268 354.188 L 140.268 353.719 L 140.189 353.484 L 140.189 353.25 L 140.111 353.016 L 140.111 352.703 L 140.033 352.469 L 140.033 352 L 139.955 351.766 L 139.955 351.219 L 139.877 350.984 L 139.877 350.438 L 139.799 350.203 L 139.799 348.875 L 139.721 348.641 L 139.721 345.203 L 139.799 344.891 L 139.799 344.344 L 139.877 344.109 L 139.877 343.484 L 139.955 343.25 L 139.955 342.938 L 140.033 342.703 L 140.033 342.078 L 140.111 341.844 L 140.189 341.531 L 140.189 341.219 L 140.268 340.984 L 140.268 340.672 L 140.346 340.359 L 140.424 340.047 L 140.424 339.813 L 140.58 339.5 L 140.58 339.188 L 140.658 338.953 L 140.736 338.641 L 140.736 338.25 L 140.893 337.938 L 140.893 337.625 L 141.049 337.391 L 141.049 337.078 L 141.205 336.766 L 141.205 336.453 L 141.361 336.141 L 141.361 335.906 L 141.518 335.672 L 141.596 335.359 L 141.674 335.047 L 141.752 334.734 L 141.908 334.422 L 141.986 334.109 L 142.064 333.797 L 142.221 333.484 L 142.221 333.172 L 142.377 332.938 L 142.533 332.625 L 142.611 332.313 L 142.768 332 L 142.846 331.688 L 143.002 331.375 L 143.08 331.063 L 143.236 330.75 L 143.393 330.438 L 143.471 330.125 L 143.627 329.813 L 143.783 329.5 L 143.861 329.188 L 144.018 328.875 L 144.174 328.563 L 144.33 328.25 L 144.486 327.938 L 144.643 327.625 L 144.799 327.234 L 144.955 326.922 L 145.111 326.609 L 145.268 326.297 L 145.424 325.984 L 145.58 325.75 L 145.736 325.438 L 145.814 325.203 L 145.971 324.969 L 146.127 324.734 L 146.283 324.5 L 146.439 324.266 L 146.596 324.031 L 146.752 323.875 L 146.83 323.641 L 146.986 323.484 L 147.143 323.25 L 147.299 323.094 L 147.455 322.938 L 147.611 322.781 L 147.768 322.625 L 147.924 322.469 L 148.08 322.313 L 148.158 322.156 L 148.314 322 L 148.471 321.922 L 148.627 321.766 L 148.783 321.688 L 148.939 321.531 L 149.018 321.453 L 149.174 321.375 L 149.33 321.219 L 149.486 321.219 L 149.564 321.063 L 149.721 321.063 L 149.877 320.906 L 149.955 320.906 L 150.111 320.75 L 150.268 320.75 L 150.346 320.672 L 150.502 320.672 L 150.58 320.594 L 150.736 320.516 L 150.814 320.516 L 150.893 320.438 L 151.049 320.438 L 151.127 320.359 L 151.361 320.359 L 151.361 320.281 L 151.518 320.281 L 151.518 319.813 L 151.361 319.422 L 151.361 319.031 L 151.283 318.563 L 151.205 318.094 L 151.127 317.547 L 151.049 317 L 151.049 316.375 L 150.971 315.75 L 150.893 315.047 L 150.893 314.813 L 150.814 314.422 L 150.814 313.641 L 150.736 313.328 L 150.736 312.938 L 150.658 312.469 L 150.658 311.688 L 150.58 311.297 L 150.58 310.438 L 150.502 309.969 L 150.502 308.094 L 150.424 307.625 L 150.424 302.156 L 150.502 301.609 L 150.502 300.516 L 150.58 300.047 L 150.58 299.5 L 150.658 298.953 L 150.736 298.406 L 150.736 297.859 L 150.814 297.313 L 150.893 296.766 L 150.971 296.219 L 151.049 295.672 L 151.127 295.125 L 151.205 294.5 L 151.283 293.953 L 151.361 293.406 L 151.439 292.859 L 151.596 292.313 L 151.674 291.766 L 151.83 291.141 L 151.908 290.594 L 152.064 290.047 L 152.064 289.734 L 152.143 289.5 L 152.221 289.188 L 152.299 288.875 L 152.377 288.641 L 152.377 288.25 L 152.533 287.938 L 152.533 287.703 L 152.689 287.391 L 152.689 287.156 L 152.846 286.844 L 152.846 286.531 L 153.002 286.297 L 153.08 285.984 L 153.158 285.672 L 153.236 285.438 L 153.314 285.125 L 153.471 284.891 L 153.471 284.578 L 153.627 284.266 L 153.705 284.031 L 153.783 283.719 L 153.939 283.484 L 154.018 283.172 L 154.096 282.938 L 154.252 282.625 L 154.33 282.313 L 154.408 282.078 L 154.564 281.766 L 154.643 281.531 L 154.799 281.219 L 154.877 280.984 L 155.033 280.672 L 155.111 280.438 L 155.268 280.125 L 155.346 279.891 L 155.502 279.578 L 155.658 279.344 L 155.736 279.031 L 155.893 278.797 L 156.049 278.484 L 156.205 278.25 L 156.283 277.938 L 156.439 277.703 L 156.596 277.469 L 156.752 277.156 L 156.908 276.922 L 157.064 276.609 L 157.221 276.375 L 157.299 276.141 L 157.455 275.828 L 157.611 275.594 L 157.846 275.359 L 158.002 275.047 L 158.158 274.813 L 158.314 274.578 L 158.471 274.266 L 158.627 274.031 L 158.783 273.797 L 159.018 273.563 L 159.174 273.25 L 159.33 273.016 L 159.564 272.781 L 159.721 272.547 L 159.877 272.313 L 160.111 272.078 L 160.268 271.766 L 160.502 271.531 L 160.658 271.297 L 160.893 271.063 L 161.049 270.828 L 161.283 270.594 L 161.518 270.359 L 161.674 270.125 L 161.908 269.891 L 162.143 269.656 L 162.299 269.422 L 162.533 269.188 L 162.768 268.953 L 163.002 268.719 L 163.236 268.563 L 163.471 268.328 L 163.705 268.094 L 163.939 267.859 L 164.174 267.625 L 164.408 267.469 L 164.643 267.234 L 164.877 267 L 165.111 266.766 L 165.346 266.609 L 165.58 266.375 L 165.893 266.141 L 166.127 265.984 L 166.361 265.828 L 166.596 265.594 L 166.83 265.594 L 167.064 265.438 L 167.299 265.203 L 167.533 265.047 L 167.768 264.891 L 168.002 264.734 L 168.236 264.578 L 168.471 264.422 L 168.705 264.344 L 168.939 264.188 L 169.174 264.031 L 169.408 263.953 L 169.564 263.797 L 169.799 263.641 L 170.033 263.563 L 170.268 263.484 L 170.502 263.328 L 170.658 263.25 L 170.893 263.172 L 171.127 263.094 L 171.283 262.938 L 171.518 262.938 L 171.752 262.781 L 171.908 262.781 L 172.143 262.703 L 172.299 262.469 L 172.768 262.469 L 172.924 262.391 L 173.158 262.313 L 173.314 262.313 L 173.549 262.234 L 173.705 262.234 L 173.939 262.156 L 174.486 262.156 L 174.643 262 L 175.424 262 L 175.424 262.078 Z  M 175.033 262.859 L 174.018 262.859 L 173.861 263.016 L 173.471 263.016 L 173.314 263.094 L 173.158 263.172 L 172.924 263.172 L 172.768 263.25 L 172.299 263.25 L 172.143 263.406 L 171.908 263.406 L 171.752 263.563 L 171.518 263.563 L 171.518 263.797 L 171.283 263.797 L 171.049 263.953 L 170.893 264.031 L 170.658 264.109 L 170.424 264.266 L 170.268 264.344 L 170.033 264.5 L 169.799 264.578 L 169.643 264.734 L 169.408 264.813 L 169.174 264.969 L 168.939 265.125 L 168.783 265.281 L 168.549 265.359 L 168.314 265.516 L 168.08 265.672 L 167.846 265.828 L 167.611 266.063 L 167.377 266.219 L 167.143 266.375 L 166.908 266.531 L 166.674 266.766 L 166.439 266.922 L 166.049 267.156 L 165.893 267.156 L 165.58 267.391 L 165.346 267.625 L 165.111 267.781 L 164.877 268.016 L 164.643 268.25 L 164.408 268.406 L 164.174 268.641 L 164.018 268.875 L 163.783 269.109 L 163.549 269.266 L 163.314 269.5 L 163.08 269.734 L 162.924 269.969 L 162.689 270.203 L 162.455 270.438 L 162.299 270.672 L 162.064 270.906 L 161.83 271.141 L 161.674 271.375 L 161.439 271.609 L 161.283 271.844 L 161.049 272.078 L 160.893 272.313 L 160.736 272.547 L 160.502 272.781 L 160.346 273.016 L 160.111 273.25 L 159.955 273.484 L 159.799 273.719 L 159.643 273.953 L 159.486 274.188 L 159.252 274.5 L 159.096 274.734 L 158.939 274.969 L 158.783 275.203 L 158.627 275.516 L 158.471 275.75 L 158.314 275.984 L 158.158 276.219 L 158.002 276.531 L 157.846 276.766 L 157.689 277 L 157.533 277.234 L 157.377 277.547 L 157.299 277.781 L 157.143 278.094 L 156.986 278.328 L 156.83 278.563 L 156.752 278.875 L 156.596 279.109 L 156.439 279.344 L 156.361 279.656 L 156.205 279.891 L 156.049 280.203 L 155.971 280.438 L 155.814 280.75 L 155.736 280.984 L 155.58 281.297 L 155.502 281.531 L 155.346 281.766 L 155.268 282.078 L 155.189 282.313 L 155.033 282.625 L 154.955 282.859 L 154.877 283.172 L 154.721 283.406 L 154.643 283.719 L 154.564 284.031 L 154.408 284.266 L 154.408 284.578 L 154.252 284.813 L 154.174 285.125 L 154.096 285.359 L 154.018 285.672 L 153.861 285.906 L 153.861 286.219 L 153.705 286.531 L 153.705 286.766 L 153.549 287.078 L 153.549 287.313 L 153.393 287.625 L 153.393 287.859 L 153.236 288.172 L 153.236 288.484 L 153.158 288.719 L 153.08 289.031 L 153.002 289.266 L 152.924 289.578 L 152.846 289.813 L 152.846 290.125 L 152.689 290.672 L 152.533 291.219 L 152.455 291.766 L 152.299 292.391 L 152.299 292.938 L 152.143 293.484 L 152.064 294.031 L 151.986 294.578 L 151.908 295.125 L 151.83 295.672 L 151.752 296.219 L 151.674 296.766 L 151.674 297.313 L 151.518 297.859 L 151.518 298.953 L 151.439 299.5 L 151.439 299.969 L 151.361 300.516 L 151.361 301.063 L 151.283 301.609 L 151.283 302.625 L 151.205 303.094 L 151.205 309.891 L 151.283 310.281 L 151.283 311.531 L 151.361 312 L 151.361 312.391 L 151.439 312.781 L 151.439 313.563 L 151.518 313.875 L 151.518 314.266 L 151.596 314.656 L 151.596 314.969 L 151.752 315.672 L 151.752 316.297 L 151.908 316.922 L 151.908 317.469 L 151.986 318.016 L 152.064 318.484 L 152.143 318.953 L 152.143 319.344 L 152.299 319.656 L 152.299 319.969 L 152.377 320.281 L 152.377 320.516 L 152.455 320.828 L 152.455 320.906 L 151.908 320.906 L 151.752 320.984 L 151.596 320.984 L 151.596 321.063 L 151.361 321.063 L 151.283 321.141 L 151.205 321.141 L 151.049 321.219 L 150.971 321.219 L 150.893 321.297 L 150.736 321.297 L 150.658 321.375 L 150.58 321.453 L 150.424 321.453 L 150.346 321.609 L 150.189 321.609 L 150.111 321.766 L 149.955 321.766 L 149.799 321.922 L 149.721 321.922 L 149.564 322.078 L 149.486 322.156 L 149.33 322.234 L 149.174 322.391 L 149.096 322.469 L 148.939 322.625 L 148.783 322.703 L 148.627 322.859 L 148.549 323.016 L 148.393 323.172 L 148.236 323.25 L 148.08 323.406 L 148.002 323.562 L 147.846 323.797 L 147.689 323.953 L 147.533 324.109 L 147.455 324.344 L 147.299 324.5 L 147.143 324.734 L 146.986 324.891 L 146.83 325.125 L 146.752 325.359 L 146.596 325.594 L 146.439 325.828 L 146.283 326.062 L 146.205 326.375 L 146.049 326.687 L 145.893 327 L 145.736 327.312 L 145.58 327.625 L 145.424 327.937 L 145.268 328.25 L 145.111 328.562 L 144.955 328.875 L 144.799 329.187 L 144.643 329.5 L 144.564 329.812 L 144.408 330.125 L 144.252 330.437 L 144.174 330.75 L 144.018 331.062 L 143.861 331.297 L 143.783 331.609 L 143.627 331.922 L 143.549 332.234 L 143.393 332.547 L 143.314 332.859 L 143.236 333.172 L 143.08 333.484 L 143.002 333.797 L 142.924 334.031 L 142.768 334.344 L 142.689 334.656 L 142.611 334.969 L 142.533 335.281 L 142.377 335.594 L 142.377 335.828 L 142.221 336.141 L 142.221 336.453 L 142.064 336.766 L 141.986 337 L 141.986 337.312 L 141.83 337.625 L 141.83 337.937 L 141.674 338.172 L 141.674 338.484 L 141.596 338.797 L 141.518 339.109 L 141.439 339.344 L 141.439 339.656 L 141.361 339.969 L 141.283 340.203 L 141.283 340.516 L 141.127 340.828 L 141.127 341.375 L 141.049 341.609 L 141.049 341.922 L 140.971 342.234 L 140.971 342.469 L 140.893 342.781 L 140.893 343.016 L 140.814 343.328 L 140.814 343.562 L 140.736 343.875 L 140.736 344.656 L 140.658 344.969 L 140.658 346.062 L 140.58 346.297 L 140.58 350.203 L 140.658 350.437 L 140.658 351.219 L 140.736 351.453 L 140.736 352 L 140.814 352.234 L 140.814 352.469 L 140.893 352.703 L 140.893 352.937 L 140.971 353.172 L 140.971 353.406 L 141.049 353.719 L 141.049 353.953 L 141.127 354.187 L 141.127 354.422 L 141.205 354.656 L 141.205 354.891 L 141.361 355.125 L 141.361 355.594 L 141.518 355.828 L 141.518 356.219 L 141.674 356.453 L 141.674 356.687 L 141.752 356.922 L 141.83 357.156 L 141.83 357.391 L 141.986 357.625 L 141.986 357.859 L 142.064 358.016 L 142.143 358.25 L 142.221 358.484 L 142.299 358.719 L 142.377 358.953 L 142.455 359.109 L 142.533 359.344 L 142.611 359.578 L 142.689 359.812 L 142.768 359.969 L 142.846 360.203 L 142.924 360.437 L 143.002 360.594 L 143.08 360.828 L 143.158 360.984 L 143.314 361.219 L 143.314 361.453 L 143.471 361.609 L 143.549 361.844 L 143.627 362 L 143.705 362.234 L 143.861 362.391 L 143.861 362.625 L 144.018 362.781 L 144.096 363.016 L 144.252 363.172 L 144.252 363.406 L 144.408 363.562 L 144.564 363.797 L 144.564 363.953 L 144.721 364.109 L 144.877 364.344 L 144.877 364.5 L 145.033 364.656 L 145.189 364.891 L 145.268 365.047 L 145.424 365.203 L 145.502 365.437 L 145.58 365.594 L 145.736 365.75 L 145.814 365.906 L 145.971 366.062 L 146.049 366.297 L 146.205 366.453 L 146.283 366.609 L 146.439 366.766 L 146.518 366.922 L 146.674 367.078 L 146.83 367.234 L 146.908 367.469 L 147.064 367.625 L 147.143 367.781 L 147.299 367.937 L 147.455 368.094 L 147.533 368.25 L 147.689 368.406 L 147.846 368.562 L 147.924 368.641 L 148.08 368.797 L 148.236 368.953 L 148.314 369.109 L 148.471 369.266 L 148.627 369.422 L 148.705 369.578 L 148.861 369.734 L 149.018 369.812 L 149.174 369.969 L 149.252 370.125 L 149.408 370.281 L 149.564 370.359 L 149.721 370.516 L 149.799 370.672 L 149.955 370.75 L 150.111 370.906 L 150.268 371.062 L 150.424 371.141 L 150.502 371.297 L 150.658 371.453 L 150.814 371.531 L 150.971 371.687 L 151.127 371.766 L 151.283 371.922 L 151.439 372 L 151.518 372.156 L 151.674 372.234 L 151.83 372.312 L 151.986 372.469 L 152.143 372.547 L 152.299 372.703 L 152.455 372.781 L 152.611 372.859 L 152.768 373.016 L 152.924 373.094 L 153.002 373.172 L 153.158 373.328 L 153.314 373.328 L 153.471 373.484 L 153.627 373.562 L 153.783 373.641 L 153.939 373.797 L 154.096 373.797 L 154.252 373.953 L 154.408 373.953 L 154.564 374.109 L 154.721 374.187 L 154.877 374.266 L 155.033 374.344 L 155.189 374.422 L 155.346 374.5 L 155.502 374.578 L 155.658 374.656 L 155.814 374.734 L 155.971 374.734 L 156.127 374.891 L 156.283 374.891 L 156.439 374.969 L 156.596 375.047 L 156.752 375.125 L 156.908 375.125 L 157.064 375.281 L 157.221 375.281 L 157.377 375.359 L 157.533 375.359 L 157.689 375.437 L 157.846 375.516 L 158.002 375.516 L 158.158 375.594 L 158.314 375.594 L 158.471 375.672 L 158.627 375.75 L 158.783 375.75 L 158.939 375.828 L 159.096 375.828 L 159.252 375.906 L 159.564 375.906 L 159.721 375.984 L 159.877 375.984 L 160.033 376.062 L 160.346 376.062 L 160.502 376.141 L 161.127 376.141 L 161.283 376.219 L 163.549 376.219 L 163.705 376.141 L 164.018 376.141 L 164.174 376.062 L 164.252 376.062 L 164.408 375.984 L 164.643 375.984 L 164.721 375.906 L 164.877 375.906 L 164.955 375.828 L 165.033 375.828 L 165.189 375.75 L 165.268 375.75 L 165.346 375.672 L 165.502 375.672 L 165.502 375.594 L 165.658 375.594 L 165.736 375.437 L 165.893 375.437 L 166.049 375.359 L 166.127 375.281 L 166.205 375.281 L 166.283 375.125 L 166.439 375.125 L 166.439 375.047 L 166.596 375.047 L 166.674 374.891 L 166.752 374.891 L 166.83 374.812 L 166.908 374.812 L 166.986 374.656 L 167.064 374.656 L 167.143 374.5 L 167.221 374.5 L 167.299 374.422 L 167.377 374.344 L 167.455 374.266 L 167.533 374.187 L 167.533 374.109 L 167.689 374.109 L 167.689 373.953 L 167.768 373.953 L 167.846 373.797 L 167.924 373.797 L 168.08 373.562 L 168.158 373.406 L 168.314 373.25 L 168.393 373.094 L 168.549 372.859 L 168.627 372.703 L 168.783 372.547 L 168.861 372.312 L 168.939 372.156 L 169.018 372 L 169.174 371.766 L 169.174 371.609 L 169.33 371.375 L 169.33 371.141 L 169.486 370.984 L 169.486 370.75 L 169.643 370.594 L 169.643 370.359 L 169.721 370.125 L 169.799 369.969 L 169.799 369.734 L 169.877 369.5 L 169.955 369.266 L 169.955 369.109 L 170.033 368.875 L 170.111 368.641 L 170.111 368.406 L 170.189 368.25 L 170.189 367.781 L 170.268 367.547 L 170.268 367.312 L 170.346 367.078 L 170.346 366.453 L 170.424 366.219 L 170.424 365.125 L 170.502 364.969 L 170.502 361.766 L 170.424 361.453 L 170.424 360.75 L 170.346 360.516 L 170.346 360.203 L 170.268 359.891 L 170.268 359.422 L 170.189 359.266 L 170.189 358.875 L 170.033 358.641 L 170.033 358.406 L 170.268 358.562 L 170.58 358.797 L 170.736 358.953 L 170.971 359.109 L 171.205 359.344 L 171.439 359.5 L 171.752 359.734 L 172.064 359.969 L 172.455 360.281 L 172.768 360.516 L 173.158 360.828 L 173.627 361.062 L 174.018 361.375 L 174.486 361.766 L 175.033 362.078 L 175.502 362.391 L 176.049 362.781 L 176.596 363.094 L 177.221 363.484 L 177.533 363.641 L 177.768 363.875 L 178.08 364.031 L 178.393 364.266 L 178.705 364.422 L 179.096 364.656 L 179.408 364.812 L 179.721 365.047 L 180.033 365.203 L 180.424 365.437 L 180.736 365.594 L 181.127 365.828 L 181.439 365.984 L 181.83 366.219 L 182.221 366.375 L 182.611 366.609 L 182.924 366.844 L 183.314 367 L 183.705 367.234 L 184.096 367.391 L 184.486 367.625 L 184.877 367.781 L 185.346 368.016 L 185.736 368.172 L 186.127 368.406 L 186.518 368.562 L 186.986 368.797 L 187.377 368.953 L 187.846 369.187 L 188.236 369.344 L 188.705 369.578 L 189.096 369.734 L 189.564 369.969 L 190.033 370.125 L 190.502 370.281 L 190.893 370.516 L 191.361 370.672 L 191.83 370.828 L 192.299 370.984 L 192.768 371.219 L 193.236 371.375 L 193.705 371.531 L 194.252 371.687 L 194.721 371.844 L 195.189 372 L 195.658 372.156 L 196.205 372.312 L 196.674 372.469 L 197.143 372.625 L 197.689 372.781 L 198.158 372.937 L 198.705 373.094 L 199.174 373.172 L 199.721 373.328 L 200.268 373.484 L 200.736 373.562 L 201.283 373.719 L 201.83 373.797 L 202.299 373.953 L 202.846 374.031 L 203.393 374.109 L 203.939 374.187 L 204.486 374.344 L 205.033 374.344 L 205.58 374.5 L 206.127 374.5 L 206.674 374.656 L 207.221 374.656 L 207.768 374.734 L 208.314 374.812 L 208.861 374.812 L 209.096 374.891 L 209.799 374.891 L 210.033 374.969 L 211.127 374.969 L 211.361 375.047 L 216.518 375.047 L 216.83 374.969 L 217.377 374.969 L 217.611 374.891 L 217.924 374.891 L 218.158 374.812 L 218.393 374.812 L 218.705 374.734 L 218.939 374.734 L 219.252 374.656 L 219.486 374.578 L 219.721 374.578 L 219.955 374.5 L 220.268 374.422 L 220.502 374.344 L 220.736 374.344 L 220.971 374.187 L 221.205 374.187 L 221.518 374.109 L 221.752 374.031 L 221.986 373.953 L 222.221 373.875 L 222.455 373.797 L 222.689 373.719 L 222.924 373.641 L 223.158 373.484 L 223.393 373.484 L 223.627 373.328 L 223.861 373.328 L 224.096 373.172 L 224.252 373.094 L 224.486 372.937 L 224.721 372.937 L 224.955 372.781 L 225.189 372.625 L 225.346 372.547 L 225.58 372.469 L 225.814 372.312 L 225.971 372.234 L 226.205 372.078 L 226.439 372 L 226.596 371.844 L 226.83 371.766 L 226.986 371.609 L 227.221 371.531 L 227.377 371.375 L 227.611 371.219 L 227.768 371.141 L 228.002 370.984 L 228.158 370.828 L 228.314 370.75 L 228.549 370.594 L 228.705 370.437 L 228.861 370.281 L 229.096 370.125 L 229.252 370.047 L 229.408 369.891 L 229.564 369.734 L 229.721 369.578 L 229.955 369.422 L 230.111 369.266 L 230.268 369.109 L 230.424 368.953 L 230.58 368.797 L 230.736 368.641 L 230.893 368.484 L 231.049 368.328 L 231.205 368.172 L 231.361 368.016 L 231.518 367.859 L 231.674 367.703 L 231.83 367.547 L 231.908 367.391 L 232.064 367.156 L 232.221 367 L 232.377 366.844 L 232.455 366.687 L 232.611 366.531 L 232.768 366.297 L 232.924 366.141 L 233.002 365.984 L 233.158 365.828 L 233.236 365.594 L 233.393 365.437 L 233.549 365.281 L 233.627 365.125 L 233.783 364.891 L 233.861 364.734 L 233.939 364.578 L 234.096 364.344 L 234.174 364.187 L 234.33 363.953 L 234.408 363.797 L 234.486 363.641 L 234.643 363.406 L 234.721 363.25 L 234.799 363.016 L 234.877 362.859 L 235.033 362.625 L 235.033 362.469 L 235.189 362.312 L 235.268 362.078 L 235.346 361.922 L 235.424 361.687 L 235.502 361.453 L 235.58 361.297 L 235.658 361.062 L 235.736 360.906 L 235.814 360.672 L 235.893 360.516 L 235.971 360.281 L 236.049 360.125 L 236.127 359.891 L 236.127 359.734 L 236.283 359.5 L 236.283 359.266 L 236.361 359.109 L 236.361 358.875 L 236.518 358.719 L 236.518 358.484 L 236.596 358.328 L 236.596 358.094 L 236.674 357.859 L 236.674 357.703 L 236.752 357.469 L 236.752 357.312 L 236.83 357.078 L 236.83 356.844 L 236.908 356.687 L 236.908 356.453 L 236.986 356.297 L 236.986 356.062 L 237.064 355.828 L 237.064 355.438 L 237.143 355.281 L 237.143 354.422 L 237.221 354.266 L 237.221 350.75 L 237.143 350.516 L 237.143 350.125 L 237.064 349.969 L 237.064 349.578 L 236.986 349.344 L 236.986 349.188 L 236.908 348.953 L 236.908 348.797 L 236.83 348.641 L 236.83 348.406 L 236.752 348.25 L 236.674 348.016 L 236.674 347.859 L 236.596 347.703 L 236.518 347.469 L 236.518 347.313 L 236.439 347.078 L 236.361 346.922 L 236.361 346.766 L 236.205 346.531 L 236.205 346.375 L 236.127 346.219 L 236.049 346.063 L 235.971 345.828 L 235.893 345.672 L 235.814 345.516 L 235.736 345.359 L 235.658 345.125 L 235.58 344.969 L 235.502 344.813 L 235.424 344.656 L 235.346 344.5 L 235.189 344.344 L 235.189 344.109 L 235.033 343.953 L 234.955 343.797 L 234.877 343.641 L 234.721 343.484 L 234.721 343.328 L 234.564 343.172 L 234.486 343.016 L 234.33 342.859 L 234.252 342.703 L 234.096 342.547 L 234.018 342.391 L 233.939 342.234 L 233.783 342.156 L 233.627 342 L 233.549 341.844 L 233.393 341.688 L 233.314 341.531 L 233.158 341.375 L 233.08 341.297 L 232.924 341.141 L 232.768 340.984 L 232.611 340.828 L 232.533 340.75 L 232.377 340.594 L 232.221 340.516 L 232.064 340.359 L 231.986 340.203 L 231.83 340.125 L 231.674 339.969 L 231.518 339.891 L 231.361 339.734 L 231.205 339.656 L 231.049 339.5 L 230.893 339.422 L 230.736 339.344 L 230.58 339.188 L 230.424 339.109 L 230.268 339.031 L 230.033 338.875 L 229.877 338.797 L 229.721 338.719 L 229.564 338.641 L 229.408 338.484 L 229.174 338.484 L 229.018 338.328 L 228.861 338.25 L 228.627 338.172 L 228.471 338.094 L 228.236 338.016 L 228.08 337.938 L 227.924 337.859 L 227.689 337.781 L 227.533 337.781 L 227.299 337.625 L 227.143 337.625 L 226.908 337.547 L 226.674 337.469 L 226.283 337.313 L 225.893 337.234 L 225.502 337.078 L 225.111 337 L 224.721 336.844 L 224.33 336.688 L 223.939 336.609 L 223.549 336.453 L 223.158 336.297 L 222.768 336.141 L 222.455 336.063 L 222.064 335.906 L 221.674 335.75 L 221.361 335.594 L 220.971 335.438 L 220.658 335.281 L 220.268 335.125 L 219.955 334.969 L 219.643 334.813 L 219.252 334.656 L 218.939 334.5 L 218.627 334.344 L 218.314 334.188 L 218.002 334.031 L 217.689 333.875 L 217.377 333.641 L 217.064 333.484 L 216.752 333.328 L 216.439 333.172 L 216.127 333.016 L 215.814 332.859 L 215.58 332.625 L 215.268 332.469 L 214.955 332.313 L 214.721 332.156 L 214.408 331.922 L 214.174 331.766 L 213.861 331.609 L 213.627 331.453 L 213.393 331.219 L 213.08 331.063 L 212.846 330.906 L 212.611 330.672 L 212.377 330.516 L 212.143 330.359 L 211.908 330.125 L 211.674 329.969 L 211.439 329.813 L 211.205 329.578 L 210.971 329.422 L 210.736 329.266 L 210.502 329.031 L 210.268 328.875 L 210.111 328.719 L 209.877 328.563 L 209.643 328.328 L 209.486 328.172 L 209.252 328.016 L 209.018 327.781 L 208.861 327.625 L 208.705 327.469 L 208.471 327.313 L 208.314 327.078 L 208.158 326.922 L 207.924 326.766 L 207.768 326.609 L 207.611 326.453 L 207.455 326.219 L 207.299 326.063 L 207.143 325.906 L 206.752 325.594 L 206.518 325.281 L 206.205 324.969 L 205.893 324.656 L 205.658 324.344 L 205.424 324.031 L 205.189 323.719 L 204.955 323.406 L 204.721 323.172 L 204.486 322.938 L 204.33 322.625 L 204.096 322.391 L 203.939 322.156 L 203.783 321.922 L 203.627 321.688 L 203.471 321.531 L 203.393 321.297 L 203.236 321.141 L 203.236 321.063 L 203.08 320.906 L 203.002 320.75 L 202.846 320.516 L 202.768 320.359 L 202.689 320.281 L 202.689 319.813 L 202.768 319.813 L 202.768 319.656 L 202.846 319.578 L 202.846 319.422 L 202.924 319.344 L 202.924 319.266 L 203.002 319.109 L 203.158 318.953 L 203.158 318.719 L 203.314 318.641 L 203.314 318.563 L 203.393 318.406 L 203.471 318.406 L 203.471 318.25 L 203.627 318.172 L 203.627 317.938 L 203.783 317.938 L 203.783 317.781 L 203.939 317.703 L 203.939 317.547 L 204.096 317.469 L 204.096 317.391 L 204.33 317.156 L 204.486 317 L 204.643 316.766 L 204.877 316.609 L 205.033 316.375 L 205.268 316.219 L 205.424 316.063 L 205.658 315.828 L 205.893 315.672 L 206.049 315.516 L 206.283 315.281 L 206.518 315.125 L 206.752 314.969 L 206.908 314.813 L 207.143 314.578 L 207.377 314.422 L 207.611 314.266 L 207.846 314.109 L 208.08 313.953 L 208.236 313.797 L 208.471 313.641 L 208.705 313.484 L 208.939 313.328 L 209.096 313.25 L 209.33 313.094 L 209.564 312.938 L 209.955 312.703 L 210.346 312.469 L 210.658 312.234 L 211.049 312.078 L 211.361 311.844 L 211.596 311.688 L 211.83 311.609 L 212.064 311.453 L 212.377 311.297 L 212.455 311.297 L 212.768 311.141 L 213.08 310.984 L 213.393 310.906 L 213.627 310.75 L 213.939 310.672 L 214.252 310.516 L 214.486 310.438 L 214.721 310.281 L 215.033 310.203 L 215.268 310.047 L 215.502 309.891 L 215.736 309.813 L 215.971 309.656 L 216.205 309.5 L 216.439 309.422 L 216.674 309.266 L 216.83 309.109 L 217.064 309.031 L 217.299 308.875 L 217.455 308.719 L 217.689 308.641 L 217.846 308.484 L 218.002 308.328 L 218.158 308.25 L 218.393 308.094 L 218.549 307.938 L 218.705 307.781 L 218.861 307.703 L 219.018 307.547 L 219.096 307.391 L 219.252 307.234 L 219.408 307.156 L 219.486 307 L 219.643 306.844 L 219.799 306.766 L 219.877 306.609 L 220.033 306.453 L 220.033 306.297 L 220.189 306.219 L 220.268 306.063 L 220.424 305.906 L 220.424 305.75 L 220.58 305.672 L 220.658 305.516 L 220.736 305.359 L 220.814 305.203 L 220.814 305.125 L 220.971 304.969 L 220.971 304.813 L 221.049 304.734 L 221.127 304.578 L 221.127 304.422 L 221.205 304.344 L 221.283 304.188 L 221.283 304.031 L 221.361 303.953 L 221.361 303.875 L 221.439 303.719 L 221.439 303.484 L 221.518 303.328 L 221.518 303.094 L 221.596 303.016 L 221.596 302.234 L 221.674 302.156 L 221.674 301.063 L 221.596 300.906 L 221.596 300.516 L 221.518 300.359 L 221.439 300.203 L 221.439 299.969 L 221.361 299.813 L 221.361 299.656 L 221.205 299.5 L 221.205 299.266 L 221.049 299.109 L 221.049 298.875 L 220.893 298.797 L 220.893 298.719 L 220.814 298.563 L 220.814 298.406 L 220.736 298.406 L 220.58 298.172 L 220.424 298.016 L 220.268 297.859 L 220.111 297.703 L 219.955 297.547 L 219.877 297.391 L 219.721 297.234 L 219.564 297.078 L 219.408 296.922 L 219.252 296.766 L 219.096 296.609 L 218.939 296.453 L 218.783 296.297 L 218.705 296.141 L 218.549 295.984 L 218.393 295.906 L 218.236 295.75 L 218.08 295.594 L 217.924 295.438 L 217.768 295.359 L 217.611 295.203 L 217.455 295.047 L 217.299 294.969 L 217.143 294.813 L 216.986 294.656 L 216.83 294.578 L 216.674 294.422 L 216.518 294.266 L 216.361 294.188 L 216.205 294.031 L 216.049 293.953 L 215.814 293.797 L 215.658 293.719 L 215.502 293.641 L 215.346 293.484 L 215.189 293.406 L 215.033 293.25 L 214.877 293.172 L 214.721 293.094 L 214.486 292.938 L 214.33 292.938 L 214.174 292.859 L 214.018 292.703 L 213.861 292.625 L 213.705 292.547 L 213.549 292.469 L 213.314 292.313 L 213.158 292.313 L 212.846 292.078 L 212.455 291.922 L 212.143 291.688 L 211.83 291.531 L 211.439 291.375 L 211.127 291.219 L 210.736 291.063 L 210.424 290.906 L 210.033 290.828 L 209.799 290.594 L 209.408 290.438 L 209.096 290.359 L 208.705 290.203 L 208.393 290.047 L 208.002 289.969 L 207.611 289.891 L 207.299 289.734 L 206.908 289.656 L 206.596 289.578 L 206.205 289.5 L 205.893 289.344 L 205.502 289.344 L 205.189 289.188 L 204.799 289.188 L 204.486 289.031 L 204.096 289.031 L 203.783 288.953 L 203.393 288.875 L 203.08 288.875 L 202.689 288.719 L 201.986 288.719 L 201.674 288.641 L 201.361 288.563 L 200.658 288.563 L 200.346 288.484 L 199.955 288.484 L 199.643 288.406 L 199.018 288.406 L 198.627 288.328 L 192.611 288.328 L 192.143 288.406 L 191.674 288.406 L 191.127 288.484 L 190.736 288.484 L 190.268 288.563 L 189.877 288.563 L 189.486 288.719 L 188.705 288.719 L 188.393 288.875 L 187.924 288.875 L 187.689 288.953 L 187.455 288.953 L 187.221 289.031 L 186.908 289.109 L 186.674 289.109 L 186.674 286.688 L 186.596 286.141 L 186.596 285.672 L 186.361 285.125 L 186.361 283.328 L 186.283 283.016 L 186.283 282.625 L 186.205 282.313 L 186.205 282 L 186.127 281.609 L 186.127 281.297 L 186.049 280.906 L 186.049 280.594 L 185.971 280.203 L 185.971 279.891 L 185.814 279.5 L 185.814 278.797 L 185.658 278.406 L 185.658 278.016 L 185.58 277.625 L 185.502 277.313 L 185.424 277 L 185.346 276.609 L 185.268 276.219 L 185.189 275.828 L 185.111 275.438 L 185.033 275.125 L 184.955 274.734 L 184.799 274.344 L 184.799 273.953 L 184.643 273.563 L 184.486 273.25 L 184.486 272.859 L 184.33 272.469 L 184.174 272.156 L 184.096 271.766 L 183.939 271.375 L 183.861 271.063 L 183.705 270.672 L 183.549 270.359 L 183.393 270.047 L 183.393 269.813 L 183.314 269.656 L 183.236 269.5 L 183.158 269.266 L 183.08 269.109 L 183.002 268.953 L 182.924 268.719 L 182.846 268.641 L 182.768 268.484 L 182.689 268.328 L 182.611 268.172 L 182.455 267.938 L 182.455 267.859 L 182.299 267.703 L 182.299 267.547 L 182.064 267.391 L 182.064 267.234 L 181.908 267.156 L 181.908 266.922 L 181.83 266.844 L 181.674 266.688 L 181.674 266.531 L 181.439 266.375 L 181.361 266.141 L 181.205 265.984 L 181.127 265.906 L 181.049 265.75 L 180.893 265.672 L 180.893 265.516 L 180.658 265.359 L 180.58 265.281 L 180.502 265.203 L 180.424 265.047 L 180.268 264.969 L 180.189 264.813 L 180.033 264.813 L 179.955 264.656 L 179.799 264.5 L 179.721 264.422 L 179.564 264.344 L 179.486 264.266 L 179.33 264.188 L 179.33 264.031 L 179.174 264.031 L 178.939 263.797 L 178.861 263.797 L 178.705 263.641 L 178.627 263.641 L 178.471 263.484 L 178.158 263.484 L 178.08 263.406 L 177.924 263.406 L 177.768 263.25 L 177.611 263.25 L 177.533 263.172 L 177.377 263.172 L 177.221 263.016 L 177.064 263.016 L 176.986 262.938 L 176.83 262.938 L 176.596 262.859 L 176.361 262.859 L 176.205 262.781 L 175.033 262.781 L 175.033 262.859 Z " fill-rule="evenodd" fill="rgb(207,207,207)"/><path d=" M 181.518 300.516 C 180.736 311.688 202.377 334.344 221.908 341.922 C 243.236 350.203 227.143 366.609 220.58 367.781 C 189.174 373.641 169.877 347.078 169.877 347.078 C 169.877 347.078 142.924 305.828 167.533 272.391 C 179.799 255.594 182.299 289.578 181.596 300.516 L 181.518 300.516 Z " fill-rule="evenodd" fill="rgb(250,247,151)"/><path d=" M 179.408 324.344 C 182.533 321.844 186.205 320.75 186.986 316.375 C 187.611 312.469 180.111 302.547 181.127 300.75 C 186.127 291.609 194.721 292.391 199.096 293.172 C 203.314 293.953 226.361 301.063 211.83 304.969 C 203.062 306.948 196.344 314.005 194.799 322.859 L 196.83 325.203 L 212.455 336.922 L 221.674 341.609 L 229.252 346.688 L 232.924 353.719 L 228.236 363.641 L 220.189 368.016 L 202.221 368.016 L 183.627 360.203 L 170.033 346.531 L 164.877 336.375 L 164.564 335.438 C 160.893 341.375 159.877 348.719 161.986 357.313 C 165.502 371.844 160.658 371.219 160.658 371.219 C 145.189 364.578 146.986 341.375 146.986 341.375 C 151.127 312.078 175.502 325.359 175.502 325.359 L 174.721 325.828 C 176.283 325.516 177.846 325.047 179.408 324.266 L 179.408 324.344 Z " fill-rule="evenodd" fill="rgb(215,211,43)"/><path d=" M 158.08 322 C 157.092 317.972 156.439 313.87 156.127 309.734 C 155.458 301.352 156.521 292.922 159.252 284.969 C 161.104 279.981 163.684 275.295 166.908 271.063 C 168.149 269.427 169.719 268.069 171.518 267.078 C 172.753 266.488 174.189 266.488 175.424 267.078 C 176.596 267.547 177.533 268.563 178.236 269.656 C 178.536 270.156 178.797 270.679 179.018 271.219 C 179.739 272.714 180.29 274.287 180.658 275.906 C 181.411 278.671 181.933 281.493 182.221 284.344 C 182.675 288.234 182.91 292.146 182.924 296.062 C 184.801 294.235 187.114 292.918 189.643 292.234 C 192.772 291.344 196.072 291.237 199.252 291.922 C 200.042 292.064 200.824 292.247 201.596 292.469 C 205.676 293.638 209.649 295.154 213.471 297 C 214.084 297.341 214.683 297.706 215.268 298.094 L 215.814 298.484 L 216.205 298.875 L 216.518 299.109 C 217.126 299.711 217.558 300.467 217.768 301.297 C 217.848 301.657 217.848 302.031 217.768 302.391 C 217.768 302.625 217.611 302.938 217.455 303.172 C 217.251 303.528 216.987 303.845 216.674 304.109 C 216.202 304.518 215.676 304.86 215.111 305.125 C 214.33 305.516 213.549 305.75 212.768 305.984 L 211.674 306.297 L 211.283 306.453 C 207.075 307.641 203.32 310.063 200.502 313.406 L 199.252 315.047 C 197.689 317.391 196.674 320.047 196.127 322.703 C 200.329 326.888 204.905 330.68 209.799 334.031 C 213.291 336.371 216.976 338.41 220.814 340.125 L 221.986 340.594 L 222.924 340.984 L 223.393 341.141 C 224.737 341.733 226.042 342.411 227.299 343.172 C 229.569 344.519 231.453 346.429 232.768 348.719 C 233.629 350.461 233.981 352.411 233.783 354.344 C 233.627 356.688 232.689 358.797 231.439 360.75 L 230.736 361.688 C 230.044 362.671 229.259 363.587 228.393 364.422 C 226.924 365.861 225.268 367.096 223.471 368.094 C 222.399 368.661 221.235 369.031 220.033 369.188 C 213.145 370.305 206.102 370.013 199.33 368.328 C 187.991 365.114 177.87 358.584 170.268 349.578 L 168.939 347.938 L 168.861 347.781 C 167.045 344.98 165.477 342.026 164.174 338.953 C 162.905 341.728 162.214 344.731 162.143 347.781 C 162.031 351.134 162.453 354.483 163.393 357.703 L 163.471 358.328 C 163.977 360.776 164.317 363.256 164.486 365.75 C 164.515 366.93 164.41 368.109 164.174 369.266 C 163.946 370.271 163.397 371.176 162.611 371.844 C 162.327 372.052 162.01 372.21 161.674 372.313 C 161.244 372.447 160.788 372.474 160.346 372.391 C 160.189 372.391 160.111 372.391 159.955 372.234 L 159.564 372.078 C 157.988 371.371 156.516 370.451 155.189 369.344 C 153.939 368.25 152.846 367 151.752 365.672 C 150.502 363.875 149.408 362 148.627 359.969 C 147.2 356.449 146.305 352.736 145.971 348.953 C 145.697 346.437 145.619 343.903 145.736 341.375 L 145.736 341.219 L 146.049 339.188 C 146.769 335.264 148.199 331.504 150.268 328.094 C 151.764 325.925 153.743 324.134 156.049 322.859 L 157.846 322.078 L 158.08 322 Z  M 163.549 323.563 L 162.143 323.719 C 160.316 323.909 158.541 324.439 156.908 325.281 C 156.032 325.781 155.219 326.384 154.486 327.078 C 152.122 329.339 150.421 332.202 149.564 335.359 C 148.919 337.368 148.474 339.435 148.236 341.531 L 148.236 343.25 C 148.212 347.796 148.843 352.322 150.111 356.688 C 151.283 360.456 153.346 363.887 156.127 366.688 C 157.515 367.969 159.097 369.024 160.814 369.813 L 160.814 369.891 C 160.971 369.891 161.049 369.734 161.127 369.656 C 161.254 369.517 161.359 369.359 161.439 369.188 L 161.596 368.953 L 161.596 368.719 L 161.752 368.406 L 161.83 368.016 L 161.908 367.391 L 161.908 366.766 C 162.064 365.672 161.908 364.5 161.83 363.406 C 161.635 361.989 161.374 360.581 161.049 359.188 L 160.814 357.938 L 160.58 356.922 L 160.424 356.141 C 159.859 353.312 159.597 350.431 159.643 347.547 C 159.83 343.511 160.896 339.565 162.768 335.984 C 164.622 332.524 167.241 329.532 170.424 327.234 L 172.846 325.516 C 170.021 324.426 167.041 323.793 164.018 323.641 L 163.705 323.641 L 163.549 323.563 Z  M 175.814 326.922 C 171.636 328.988 168.118 332.181 165.658 336.141 C 167.187 339.633 168.935 343.025 170.893 346.297 C 171.828 347.536 172.846 348.71 173.939 349.813 C 181.777 358.451 192.186 364.34 203.627 366.609 C 208.918 367.586 214.342 367.613 219.643 366.688 L 220.189 366.609 C 220.578 366.497 220.969 366.393 221.361 366.297 L 222.299 365.828 C 223.957 364.993 225.463 363.884 226.752 362.547 C 227.426 361.834 228.052 361.077 228.627 360.281 C 225.136 360.215 221.668 359.69 218.314 358.719 C 209.586 356.321 201.482 352.056 194.564 346.219 C 187.469 340.665 181.161 334.174 175.814 326.922 Z  M 188.08 317.625 L 188.002 317.781 L 187.846 318.016 L 187.768 318.328 C 186.862 320.071 185.613 321.613 184.096 322.859 C 182.377 324.344 180.424 325.359 178.393 326.141 L 179.018 326.922 C 181.391 330.134 184.003 333.163 186.83 335.984 C 191.555 340.728 196.736 344.993 202.299 348.719 C 209.389 353.305 217.382 356.316 225.736 357.547 C 227.221 357.781 228.705 357.859 230.189 357.859 C 231.008 356.241 231.385 354.436 231.283 352.625 C 231.216 351.763 231.005 350.918 230.658 350.125 C 229.75 348.308 228.34 346.79 226.596 345.75 C 225.383 344.872 224.072 344.138 222.689 343.563 L 220.814 342.781 L 220.033 342.547 C 213.361 339.715 207.168 335.867 201.674 331.141 C 196.702 327.102 192.148 322.574 188.08 317.625 Z  M 186.518 315.594 C 184.616 312.901 182.993 310.021 181.674 307 C 180.971 305.196 180.524 303.303 180.346 301.375 L 180.346 299.813 C 180.649 295.149 180.518 290.467 179.955 285.828 C 179.665 283.205 179.248 280.598 178.705 278.016 C 178.176 275.671 177.39 273.391 176.361 271.219 C 176.08 270.735 175.739 270.289 175.346 269.891 C 175.118 269.644 174.855 269.434 174.564 269.266 C 174.322 269.135 174.057 269.056 173.783 269.031 C 173.227 269.03 172.684 269.193 172.221 269.5 C 172.114 269.547 172.01 269.599 171.908 269.656 L 171.518 269.891 C 171.207 270.123 170.919 270.385 170.658 270.672 C 170.143 271.149 169.672 271.672 169.252 272.234 C 168.521 273.131 167.842 274.071 167.221 275.047 C 162.916 281.448 160.112 288.739 159.018 296.375 C 158.38 300.851 158.249 305.385 158.627 309.891 C 158.939 313.797 159.643 317.625 160.58 321.375 C 163.846 320.866 167.186 321.106 170.346 322.078 C 172.307 322.605 174.216 323.311 176.049 324.188 L 176.986 323.953 C 179.565 323.129 181.9 321.68 183.783 319.734 C 184.466 318.954 185.044 318.087 185.502 317.156 L 185.736 316.688 L 185.814 316.531 C 186.012 316.217 186.248 315.928 186.518 315.672 L 186.518 315.594 Z  M 194.018 320.594 C 195.078 316.817 197.004 313.34 199.643 310.438 C 202.238 307.743 205.458 305.73 209.018 304.578 L 210.814 303.953 L 211.908 303.641 L 212.377 303.484 C 213.106 303.268 213.813 302.98 214.486 302.625 C 214.773 302.484 215.037 302.299 215.268 302.078 L 215.268 301.531 C 215.117 301.297 214.933 301.086 214.721 300.906 L 213.471 299.969 C 212.578 299.371 211.637 298.848 210.658 298.406 C 207.491 296.87 204.164 295.691 200.736 294.891 C 198.947 294.434 197.113 294.172 195.268 294.109 L 194.877 294.109 C 193.242 294.103 191.613 294.313 190.033 294.734 C 187.096 295.665 184.561 297.565 182.846 300.125 L 182.846 300.672 C 182.806 301.671 182.912 302.671 183.158 303.641 C 183.587 305.447 184.271 307.183 185.189 308.797 C 186.59 306.485 188.484 304.511 190.736 303.016 C 191.674 302.444 192.669 301.973 193.705 301.609 L 193.783 301.609 L 194.643 303.953 C 194.486 303.953 194.408 303.953 194.252 304.109 L 193.861 304.188 C 190.637 305.552 188.082 308.136 186.752 311.375 C 188.826 314.707 191.263 317.799 194.018 320.594 Z " fill-rule="evenodd" fill="rgb(67,50,49)"/></g></g><g id="goto:page2;"><path d="M 31.325 585 L 347.675 585 C 353.374 585 358 589.626 358 595.325 L 358 633.675 C 358 639.374 353.374 644 347.675 644 L 31.325 644 C 25.626 644 21 639.374 21 633.675 L 21 595.325 C 21 589.626 25.626 585 31.325 585 Z" style="stroke:none;fill:#EA5353;stroke-linecap:square;stroke-miterlimit:3;"/><g transform="matrix(1,0,0,1,118.5,600.882)"><text transform="matrix(1,0,0,1,0,21.377)" style="font-family:&quot;Open Sans&quot;;font-weight:400;font-size:20px;font-style:normal;fill:#ffffff;stroke:none;">Second screen</text></g></g></g></svg>